<svg xmlns="http://www.w3.org/2000/svg" width="565" height="126" viewBox="0 0 565 126"><path fill="#FFF" d="M8 8h170v93H8z"/><path d="M0 109h90v10H58v7h71v-7H98v-10h88V0H0v109zM8 8h170v93H8V8z"/><path fill="#FFF" d="M499 41h61v73h-61z"/><path d="M494 36v90h71V36h-71zm5 5h61v73h-61V41z"/><path fill="#FFF" d="M225 57h36v59h-36z"/><path d="M221 126h44V51h-44v75zm40-69v59h-36V57h36z"/><path fill="#FFF" d="M320 29h121v82H320z"/><path d="M447 23H314v94h-9v9h149v-9h-7V23zm-127 6h121v82H320V29z"/></svg>