<?xml version="1.0" encoding="utf-8"?>
<!-- Generator: Adobe Illustrator 16.0.0, SVG Export Plug-In . SVG Version: 6.00 Build 0)  -->
<!DOCTYPE svg PUBLIC "-//W3C//DTD SVG 1.1//EN" "http://www.w3.org/Graphics/SVG/1.1/DTD/svg11.dtd">
<svg version="1.1" id="Layer_1" xmlns="http://www.w3.org/2000/svg" xmlns:xlink="http://www.w3.org/1999/xlink" x="0px" y="0px"
	 width="565px" height="126px" viewBox="0 0 565 126" enable-background="new 0 0 565 126" xml:space="preserve">
<g>
	<rect x="8" y="8" fill="#FFFFFF" width="170" height="93"/>
	<path d="M0,109h90v10H58v7h71v-7H98v-10h88V0H0V109z M8,8h170v93H8V8z"/>
	<rect x="499" y="41" fill="#FFFFFF" width="61" height="73"/>
	<path d="M494,36v90h71V36H494z M499,41h61v73h-61V41z"/>
	<rect x="225" y="57" fill="#FFFFFF" width="36" height="59"/>
	<path d="M221,126h44V51h-44V126z M261,57v59h-36V57H261z"/>
	<rect x="320" y="29" fill="#FFFFFF" width="121" height="82"/>
	<path d="M447,23H314v94h-9v9h149v-9h-7V23z M320,29h121v82H320V29z"/>
</g>
</svg>
